<svg width="170" height="28" viewBox="0 0 170 28" fill="none" xmlns="http://www.w3.org/2000/svg">
<path d="M5.99805 5.58984V11.3027H12.3613C13.498 11.3027 14.418 11.0918 15.1211 10.6699C15.8359 10.2363 16.1934 9.47461 16.1934 8.38477C16.1934 7.17773 15.7246 6.38086 14.7871 5.99414C13.9785 5.72461 12.9473 5.58984 11.6934 5.58984H5.99805ZM5.99805 15.5918V22.5H12.3613C13.498 22.5 14.3828 22.3477 15.0156 22.043C16.1641 21.4805 16.7383 20.4023 16.7383 18.8086C16.7383 17.4609 16.1816 16.5352 15.0684 16.0312C14.4473 15.75 13.5742 15.6035 12.4492 15.5918H5.99805ZM13.416 1.08984C16.5918 1.13672 18.8418 2.05664 20.166 3.84961C20.9629 4.95117 21.3613 6.26953 21.3613 7.80469C21.3613 9.38672 20.9629 10.6582 20.166 11.6191C19.7207 12.1582 19.0645 12.6504 18.1973 13.0957C19.5215 13.5762 20.5176 14.3379 21.1855 15.3809C21.8652 16.4238 22.2051 17.6895 22.2051 19.1777C22.2051 20.7129 21.8184 22.0898 21.0449 23.3086C20.5527 24.1172 19.9375 24.7969 19.1992 25.3477C18.3672 25.9805 17.3828 26.4141 16.2461 26.6484C15.1211 26.8828 13.8965 27 12.5723 27H0.830078V1.08984H13.416ZM31.5039 5.55469H26.4238V0.931641H31.5039V5.55469ZM26.4238 7.83984H31.5039V27H26.4238V7.83984ZM46.9902 7.38281C48.9707 7.38281 50.5879 7.9043 51.8418 8.94727C53.1074 9.97852 53.7402 11.6953 53.7402 14.0977V27H48.6074V15.3457C48.6074 14.3379 48.4727 13.5645 48.2031 13.0254C47.7109 12.041 46.7734 11.5488 45.3906 11.5488C43.6914 11.5488 42.5254 12.2695 41.8926 13.7109C41.5645 14.4727 41.4004 15.4453 41.4004 16.6289V27H36.4082V7.875H41.2422V10.6699C41.8867 9.68555 42.4961 8.97656 43.0703 8.54297C44.1016 7.76953 45.4082 7.38281 46.9902 7.38281ZM68.9453 17.6836C68.6289 17.8828 68.3066 18.0469 67.9785 18.1758C67.6621 18.293 67.2227 18.4043 66.6602 18.5098L65.5352 18.7207C64.4805 18.9082 63.7246 19.1367 63.2676 19.4062C62.4941 19.8633 62.1074 20.5723 62.1074 21.5332C62.1074 22.3887 62.3418 23.0098 62.8105 23.3965C63.291 23.7715 63.8711 23.959 64.5508 23.959C65.6289 23.959 66.6191 23.6426 67.5215 23.0098C68.4355 22.377 68.9102 21.2227 68.9453 19.5469V17.6836ZM65.9043 15.3457C66.8301 15.2285 67.4922 15.082 67.8906 14.9062C68.6055 14.6016 68.9629 14.127 68.9629 13.4824C68.9629 12.6973 68.6875 12.1582 68.1367 11.8652C67.5977 11.5605 66.8008 11.4082 65.7461 11.4082C64.5625 11.4082 63.7246 11.7012 63.2324 12.2871C62.8809 12.7207 62.6465 13.3066 62.5293 14.0449H57.6953C57.8008 12.3691 58.2695 10.9922 59.1016 9.91406C60.4258 8.22656 62.6992 7.38281 65.9219 7.38281C68.0195 7.38281 69.8828 7.79883 71.5117 8.63086C73.1406 9.46289 73.9551 11.0332 73.9551 13.3418V22.1309C73.9551 22.7402 73.9668 23.4785 73.9902 24.3457C74.0254 25.002 74.125 25.4473 74.2891 25.6816C74.4531 25.916 74.6992 26.1094 75.0273 26.2617V27H69.5781C69.4258 26.6133 69.3203 26.25 69.2617 25.9102C69.2031 25.5703 69.1562 25.1836 69.1211 24.75C68.4297 25.5 67.6328 26.1387 66.7305 26.666C65.6523 27.2871 64.4336 27.5977 63.0742 27.5977C61.3398 27.5977 59.9043 27.1055 58.7676 26.1211C57.6426 25.125 57.0801 23.7188 57.0801 21.9023C57.0801 19.5469 57.9883 17.8418 59.8047 16.7871C60.8008 16.2129 62.2656 15.8027 64.1992 15.5566L65.9043 15.3457ZM88.8262 7.38281C88.9199 7.38281 88.9961 7.38867 89.0547 7.40039C89.125 7.40039 89.2715 7.40625 89.4941 7.41797V12.5508C89.1777 12.5156 88.8965 12.4922 88.6504 12.4805C88.4043 12.4688 88.2051 12.4629 88.0527 12.4629C86.0371 12.4629 84.6836 13.1191 83.9922 14.4316C83.6055 15.1699 83.4121 16.3066 83.4121 17.8418V27H78.3672V7.83984H83.1484V11.1797C83.9219 9.90234 84.5957 9.0293 85.1699 8.56055C86.1074 7.77539 87.3262 7.38281 88.8262 7.38281ZM98.2656 5.58984V12.5508H104.4C105.619 12.5508 106.533 12.4102 107.143 12.1289C108.221 11.6367 108.76 10.6641 108.76 9.21094C108.76 7.64062 108.238 6.58594 107.195 6.04688C106.609 5.74219 105.73 5.58984 104.559 5.58984H98.2656ZM105.684 1.08984C107.5 1.125 108.895 1.34766 109.867 1.75781C110.852 2.16797 111.684 2.77148 112.363 3.56836C112.926 4.22461 113.371 4.95117 113.699 5.74805C114.027 6.54492 114.191 7.45312 114.191 8.47266C114.191 9.70312 113.881 10.916 113.26 12.1113C112.639 13.2949 111.613 14.1328 110.184 14.625C111.379 15.1055 112.223 15.791 112.715 16.6816C113.219 17.5605 113.471 18.9082 113.471 20.7246V22.4648C113.471 23.6484 113.518 24.4512 113.611 24.873C113.752 25.541 114.08 26.0332 114.596 26.3496V27H108.637C108.473 26.4258 108.355 25.9629 108.285 25.6113C108.145 24.8848 108.068 24.1406 108.057 23.3789L108.021 20.9707C107.998 19.3184 107.693 18.2168 107.107 17.666C106.533 17.1152 105.449 16.8398 103.855 16.8398H98.2656V27H92.9746V1.08984H105.684ZM126.021 11.4609C124.861 11.4609 123.959 11.8242 123.314 12.5508C122.682 13.2773 122.283 14.2617 122.119 15.5039H129.906C129.824 14.1797 129.42 13.1777 128.693 12.498C127.979 11.8066 127.088 11.4609 126.021 11.4609ZM126.021 7.33008C127.615 7.33008 129.051 7.62891 130.328 8.22656C131.605 8.82422 132.66 9.76758 133.492 11.0566C134.242 12.1934 134.729 13.5117 134.951 15.0117C135.08 15.8906 135.133 17.1562 135.109 18.8086H121.996C122.066 20.7305 122.67 22.0781 123.807 22.8516C124.498 23.332 125.33 23.5723 126.303 23.5723C127.334 23.5723 128.172 23.2793 128.816 22.6934C129.168 22.377 129.479 21.9375 129.748 21.375H134.863C134.734 22.5117 134.143 23.666 133.088 24.8379C131.447 26.7012 129.15 27.6328 126.197 27.6328C123.76 27.6328 121.609 26.8477 119.746 25.2773C117.883 23.707 116.951 21.1523 116.951 17.6133C116.951 14.2969 117.789 11.7539 119.465 9.98438C121.152 8.21484 123.338 7.33008 126.021 7.33008ZM149.119 7.38281C151.1 7.38281 152.717 7.9043 153.971 8.94727C155.236 9.97852 155.869 11.6953 155.869 14.0977V27H150.736V15.3457C150.736 14.3379 150.602 13.5645 150.332 13.0254C149.84 12.041 148.902 11.5488 147.52 11.5488C145.82 11.5488 144.654 12.2695 144.021 13.7109C143.693 14.4727 143.529 15.4453 143.529 16.6289V27H138.537V7.875H143.371V10.6699C144.016 9.68555 144.625 8.97656 145.199 8.54297C146.23 7.76953 147.537 7.38281 149.119 7.38281ZM158.541 11.584V8.01562H161.213V2.67188H166.17V8.01562H169.281V11.584H166.17V21.709C166.17 22.4941 166.27 22.9863 166.469 23.1855C166.668 23.373 167.277 23.4668 168.297 23.4668C168.449 23.4668 168.607 23.4668 168.771 23.4668C168.947 23.4551 169.117 23.4434 169.281 23.4316V27.1758L166.908 27.2637C164.541 27.3457 162.924 26.9355 162.057 26.0332C161.494 25.459 161.213 24.5742 161.213 23.3789V11.584H158.541Z" fill="#761A79"/>
</svg>
